{
  "source": "C:\\Users\\Peter\\Desktop\\stuff\\MIUN\\quantitative_research\\video_compression\\videos\\BVI-HD\\BVI-HD_CDVL_videos\\ORIG\\Lightreef_1920x1080_30fps.mp4",
  "output": "C:\\Users\\Peter\\Desktop\\stuff\\MIUN\\quantitative_research\\video_compression\\compressed_videos\\BVI-HD\\av1\\3\\Lightreef_1920x1080_30fps_av1.mkv",
  "codec": "av1",
  "ok": "Input #0, mov,mp4,m4a,3gp,3g2,mj2, from 'C:\\Users\\Peter\\Desktop\\stuff\\MIUN\\quantitative_research\\video_compression\\videos\\BVI-HD\\BVI-HD_CDVL_videos\\ORIG\\Lightreef_1920x1080_30fps.mp4':\n  Metadata:\n    major_brand     : isom\n    minor_version   : 512\n    compatible_brands: isomiso2avc1mp41\n    encoder         : Lavf54.28.101\n  Duration: 00:00:05.00, start: 0.000000, bitrate: 361719 kb/s\n  Stream #0:0[0x1](und): Video: h264 (High 4:4:4 Predictive) (avc1 / 0x31637661), yuv420p(progressive), 1920x1080, 361715 kb/s, 30 fps, 30 tbr, 30 tbn (default)\n    Metadata:\n      handler_name    : VideoHandler\n      vendor_id       : [0][0][0][0]\n[out#0/matroska @ 0000028a52169700] Codec AVOption b:a (set bitrate (in bits/s)) has not been used for any stream. The most likely reason is either wrong type (e.g. a video option with no video streams) or that it is a private option of some decoder which was not actually used for any stream.\nStream mapping:\n  Stream #0:0 -> #0:0 (h264 (native) -> av1 (libsvtav1))\nPress [q] to stop, [?] for help\nSvt[info]: -------------------------------------------\nSvt[info]: SVT [version]:\tSVT-AV1 Encoder Lib v3.1.0-19-g6ecfe8ec\nSvt[info]: SVT [build]  :\tGCC 15.2.0\t 64 bit\nSvt[info]: LIB Build date: Aug 17 2025 11:37:13\nSvt[info]: -------------------------------------------\nSvt[info]: Level of Parallelism: 5\nSvt[info]: Number of PPCS 93\nSvt[info]: [asm level on system : up to avx2]\nSvt[info]: [asm level selected : up to avx2]\nSvt[info]: -------------------------------------------\nSvt[info]: SVT [config]: main profile\ttier (auto)\tlevel (auto)\nSvt[info]: SVT [config]: width / height / fps numerator / fps denominator \t\t: 1920 / 1080 / 30 / 1\nSvt[info]: SVT [config]: bit-depth / color format \t\t\t\t\t: 8 / YUV420\nSvt[info]: SVT [config]: preset / tune / pred struct \t\t\t\t\t: 4 / PSNR / random access\nSvt[info]: SVT [config]: gop size / mini-gop size / key-frame type \t\t\t: 161 / 16 / key frame\nSvt[info]: SVT [config]: BRC mode / target bitrate (kbps)\t\t\t\t: VBR / 3000 \nSvt[info]: SVT [config]: AQ mode / Variance Boost \t\t\t\t\t: 2 / 0\nSvt[info]: SVT [config]: sharpness / luminance-based QP bias \t\t\t\t: 0 / 0\nSvt[info]: SVT [config]: QP scale compress strength \t\t\t\t\t: 0\nSvt[info]: -------------------------------------------\nOutput #0, matroska, to 'C:\\Users\\Peter\\Desktop\\stuff\\MIUN\\quantitative_research\\video_compression\\compressed_videos\\BVI-HD\\av1\\3\\Lightreef_1920x1080_30fps_av1.mkv':\n  Metadata:\n    major_brand     : isom\n    minor_version   : 512\n    compatible_brands: isomiso2avc1mp41\n    encoder         : Lavf62.3.100\n  Stream #0:0(und): Video: av1 (AV01 / 0x31305641), yuv420p(tv, progressive), 1920x1080, q=2-31, 3000 kb/s, 30 fps, 1k tbn (default)\n    Metadata:\n      encoder         : Lavc62.11.100 libsvtav1\n      handler_name    : VideoHandler\n      vendor_id       : [0][0][0][0]\n    Side data:\n      cpb: bitrate max/min/avg: 0/0/3000000 buffer size: 3000000 vbv_delay: N/A\nframe=    0 fps=0.0 q=0.0 size=       0KiB time=N/A bitrate=N/A speed=N/A elapsed=0:00:01.78    \nframe=    0 fps=0.0 q=0.0 size=       0KiB time=N/A bitrate=N/A speed=N/A elapsed=0:00:02.51    \nframe=    0 fps=0.0 q=0.0 size=       0KiB time=N/A bitrate=N/A speed=N/A elapsed=0:00:03.05    \nframe=    0 fps=0.0 q=0.0 size=       0KiB time=N/A bitrate=N/A speed=N/A elapsed=0:00:03.66    \nframe=    0 fps=0.0 q=0.0 size=       0KiB time=N/A bitrate=N/A speed=N/A elapsed=0:00:04.27    \nframe=    0 fps=0.0 q=0.0 size=       0KiB time=N/A bitrate=N/A speed=N/A elapsed=0:00:04.89    \nframe=    0 fps=0.0 q=0.0 size=       0KiB time=N/A bitrate=N/A speed=N/A elapsed=0:00:05.46    \nframe=    1 fps=0.2 q=28.0 size=       1KiB time=00:00:00.00 bitrate=N/A speed=   0x elapsed=0:00:05.99    \nframe=    1 fps=0.2 q=28.0 size=       1KiB time=00:00:00.00 bitrate=N/A speed=   0x elapsed=0:00:06.55    \nframe=    1 fps=0.1 q=28.0 size=       1KiB time=00:00:00.00 bitrate=N/A speed=   0x elapsed=0:00:07.11    \nframe=    1 fps=0.1 q=28.0 size=       1KiB time=00:00:00.00 bitrate=N/A speed=   0x elapsed=0:00:07.65    \nframe=    3 fps=0.4 q=44.0 size=       1KiB time=00:00:00.06 bitrate=  85.6kbits/s speed=0.00816x elapsed=0:00:08.16    \nframe=    7 fps=0.8 q=44.0 size=       1KiB time=00:00:00.16 bitrate=  34.2kbits/s speed=0.0191x elapsed=0:00:08.73    \nframe=    8 fps=0.9 q=45.0 size=       1KiB time=00:00:00.23 bitrate=  24.4kbits/s speed=0.0252x elapsed=0:00:09.26    \nframe=   12 fps=1.2 q=45.0 size=       1KiB time=00:00:00.36 bitrate=  15.6kbits/s speed=0.0374x elapsed=0:00:09.79    \nframe=   16 fps=1.5 q=44.0 size=       1KiB time=00:00:00.46 bitrate=  12.2kbits/s speed=0.0451x elapsed=0:00:10.35    \nframe=   20 fps=1.8 q=45.0 size=       1KiB time=00:00:00.63 bitrate=   9.0kbits/s speed=0.0577x elapsed=0:00:10.98    \nframe=   23 fps=2.0 q=44.0 size=       1KiB time=00:00:00.73 bitrate=   7.8kbits/s speed=0.0637x elapsed=0:00:11.51    \nframe=   27 fps=2.2 q=42.0 size=       1KiB time=00:00:00.83 bitrate=   6.8kbits/s speed=0.0691x elapsed=0:00:12.05    \nframe=   30 fps=2.4 q=45.0 size=       1KiB time=00:00:00.96 bitrate=   5.9kbits/s speed=0.0768x elapsed=0:00:12.58    \nframe=   35 fps=2.7 q=45.0 size=       1KiB time=00:00:01.13 bitrate=   5.0kbits/s speed=0.0863x elapsed=0:00:13.12    \nframe=   38 fps=2.8 q=46.0 size=       1KiB time=00:00:01.23 bitrate=   4.6kbits/s speed=0.0902x elapsed=0:00:13.66    \nframe=   41 fps=2.9 q=39.0 size=       1KiB time=00:00:01.33 bitrate=   4.3kbits/s speed=0.0936x elapsed=0:00:14.24    \nframe=   46 fps=3.1 q=46.0 size=       1KiB time=00:00:01.50 bitrate=   3.8kbits/s speed=0.101x elapsed=0:00:14.78    \nframe=   51 fps=3.3 q=46.0 size=       1KiB time=00:00:01.66 bitrate=   3.4kbits/s speed=0.109x elapsed=0:00:15.34    \nframe=   57 fps=3.6 q=41.0 size=       1KiB time=00:00:01.86 bitrate=   3.1kbits/s speed=0.117x elapsed=0:00:15.88    \nframe=   57 fps=3.5 q=41.0 size=       1KiB time=00:00:01.86 bitrate=   3.1kbits/s speed=0.113x elapsed=0:00:16.48    \nframe=   63 fps=3.7 q=44.0 size=       1KiB time=00:00:02.00 bitrate=   2.9kbits/s speed=0.117x elapsed=0:00:17.10    \nframe=   65 fps=3.7 q=34.0 size=       1KiB time=00:00:02.13 bitrate=   2.7kbits/s speed=0.121x elapsed=0:00:17.70    \nframe=   71 fps=3.9 q=46.0 size=       1KiB time=00:00:02.33 bitrate=   2.4kbits/s speed=0.128x elapsed=0:00:18.25    \nframe=   73 fps=3.9 q=41.0 size=       1KiB time=00:00:02.40 bitrate=   2.4kbits/s speed=0.127x elapsed=0:00:18.83    \nframe=   77 fps=4.0 q=41.0 size=       1KiB time=00:00:02.53 bitrate=   2.3kbits/s speed=0.131x elapsed=0:00:19.39    \nframe=   81 fps=4.1 q=34.0 size=       1KiB time=00:00:02.66 bitrate=   2.1kbits/s speed=0.134x elapsed=0:00:19.96    \nframe=   85 fps=4.1 q=45.0 size=       1KiB time=00:00:02.80 bitrate=   2.0kbits/s speed=0.137x elapsed=0:00:20.49    \nframe=   89 fps=4.2 q=41.0 size=       1KiB time=00:00:02.93 bitrate=   1.9kbits/s speed=0.139x elapsed=0:00:21.04    \nframe=   93 fps=4.3 q=43.0 size=       1KiB time=00:00:03.06 bitrate=   1.9kbits/s speed=0.142x elapsed=0:00:21.57    \nframe=   97 fps=4.4 q=35.0 size=       1KiB time=00:00:03.20 bitrate=   1.8kbits/s speed=0.145x elapsed=0:00:22.12    \nframe=  101 fps=4.5 q=46.0 size=       1KiB time=00:00:03.33 bitrate=   1.7kbits/s speed=0.147x elapsed=0:00:22.65    \nframe=  105 fps=4.5 q=43.0 size=       1KiB time=00:00:03.46 bitrate=   1.6kbits/s speed=0.15x elapsed=0:00:23.18    \nframe=  107 fps=4.5 q=46.0 size=       1KiB time=00:00:03.53 bitrate=   1.6kbits/s speed=0.149x elapsed=0:00:23.71    \nframe=  111 fps=4.6 q=47.0 size=       1KiB time=00:00:03.66 bitrate=   1.6kbits/s speed=0.151x elapsed=0:00:24.29    \nframe=  115 fps=4.6 q=49.0 size=       1KiB time=00:00:03.80 bitrate=   1.5kbits/s speed=0.153x elapsed=0:00:24.82    \nframe=  119 fps=4.7 q=46.0 size=       1KiB time=00:00:03.93 bitrate=   1.5kbits/s speed=0.155x elapsed=0:00:25.34    \nframe=  121 fps=4.7 q=43.0 size=       1KiB time=00:00:04.00 bitrate=   1.4kbits/s speed=0.155x elapsed=0:00:25.87    \nframe=  125 fps=4.7 q=45.0 size=       1KiB time=00:00:04.13 bitrate=   1.4kbits/s speed=0.156x elapsed=0:00:26.43    \nframe=  131 fps=4.9 q=51.0 size=       1KiB time=00:00:04.33 bitrate=   1.3kbits/s speed=0.161x elapsed=0:00:26.99    \nframe=  137 fps=5.0 q=47.0 size=       1KiB time=00:00:04.53 bitrate=   1.3kbits/s speed=0.164x elapsed=0:00:27.57    \nframe=  139 fps=4.9 q=51.0 size=       1KiB time=00:00:04.60 bitrate=   1.2kbits/s speed=0.164x elapsed=0:00:28.09    \n[out#0/matroska @ 0000028a52169700] video:1871KiB audio:0KiB subtitle:0KiB other streams:0KiB global headers:0KiB muxing overhead: 0.075819%\nframe=  150 fps=5.2 q=51.0 Lsize=    1873KiB time=00:00:04.96 bitrate=3089.2kbits/s speed=0.174x elapsed=0:00:28.58    \n",
  "seconds": 29.35938024520874,
  "probe_out": {}
}